<svg width="24" height="25" viewBox="0 0 24 25" fill="none" xmlns="http://www.w3.org/2000/svg">
<path opacity="0.35" d="M18 21.5H6C4.343 21.5 3 20.157 3 18.5V6.5C3 4.843 4.343 3.5 6 3.5H18C19.657 3.5 21 4.843 21 6.5V18.5C21 20.157 19.657 21.5 18 21.5Z" fill="#AEB3B7"/>
<path d="M21 15.5V18.5C21 20.157 19.657 21.5 18 21.5H6C4.343 21.5 3 20.157 3 18.5V15.5H7.342C8.143 15.5 8.924 15.931 9.235 16.669C9.69 17.746 10.755 18.5 12 18.5C13.245 18.5 14.31 17.746 14.765 16.669C15.076 15.931 15.856 15.5 16.658 15.5H21Z" fill="#AEB3B7"/>
</svg>
