<svg width="24" height="25" viewBox="0 0 24 25" fill="none" xmlns="http://www.w3.org/2000/svg">
<path d="M8 11.5H5C3.343 11.5 2 10.157 2 8.5V5.5C2 3.843 3.343 2.5 5 2.5H8C9.657 2.5 11 3.843 11 5.5V8.5C11 10.157 9.657 11.5 8 11.5Z" fill="#F97F39"/>
<path opacity="0.35" d="M19 11.5H16C14.343 11.5 13 10.157 13 8.5V5.5C13 3.843 14.343 2.5 16 2.5H19C20.657 2.5 22 3.843 22 5.5V8.5C22 10.157 20.657 11.5 19 11.5Z" fill="#F97F39"/>
<path opacity="0.35" d="M8 22.5H5C3.343 22.5 2 21.157 2 19.5V16.5C2 14.843 3.343 13.5 5 13.5H8C9.657 13.5 11 14.843 11 16.5V19.5C11 21.157 9.657 22.5 8 22.5Z" fill="#F97F39"/>
<path opacity="0.35" d="M19 22.5H16C14.343 22.5 13 21.157 13 19.5V16.5C13 14.843 14.343 13.5 16 13.5H19C20.657 13.5 22 14.843 22 16.5V19.5C22 21.157 20.657 22.5 19 22.5Z" fill="#F97F39"/>
<path d="M4.99989 15.0001C4.99989 15.8301 4.32989 16.5001 3.49989 16.5001C2.88989 16.5001 2.35989 16.1301 2.13989 15.6101C2.42989 14.6701 3.16989 13.9301 4.10989 13.6401C4.62989 13.8601 4.99989 14.3901 4.99989 15.0001Z" fill="#F97F39"/>
<path d="M10.86 15.6101C10.64 16.1301 10.11 16.5001 9.5 16.5001C8.67 16.5001 8 15.8301 8 15.0001C8 14.3901 8.37 13.8601 8.89 13.6401C9.83 13.9301 10.57 14.6701 10.86 15.6101Z" fill="#F97F39"/>
<path d="M4.99989 21C4.99989 21.61 4.62989 22.14 4.10989 22.36C3.16989 22.07 2.42989 21.33 2.13989 20.39C2.35989 19.87 2.88989 19.5 3.49989 19.5C4.32989 19.5 4.99989 20.17 4.99989 21Z" fill="#F97F39"/>
<path d="M10.86 20.39C10.57 21.33 9.83 22.07 8.89 22.36C8.37 22.14 8 21.61 8 21C8 20.17 8.67 19.5 9.5 19.5C10.11 19.5 10.64 19.87 10.86 20.39Z" fill="#F97F39"/>
<path d="M6.5 19.5C7.32843 19.5 8 18.8284 8 18C8 17.1716 7.32843 16.5 6.5 16.5C5.67157 16.5 5 17.1716 5 18C5 18.8284 5.67157 19.5 6.5 19.5Z" fill="#F97F39"/>
<path d="M21.71 15.21L14.71 22.21C14.09 21.91 13.59 21.41 13.29 20.79L20.29 13.79C20.91 14.09 21.41 14.59 21.71 15.21Z" fill="#F97F39"/>
<path d="M17.42 13.5L13 17.92V16.5C13 14.84 14.34 13.5 16 13.5H17.42Z" fill="#F97F39"/>
<path d="M22.0001 18.0801V19.5001C22.0001 21.1601 20.6601 22.5001 19.0001 22.5001H17.5801L22.0001 18.0801Z" fill="#F97F39"/>
</svg>
