<svg width="46" height="45" viewBox="0 0 46 45" fill="none" xmlns="http://www.w3.org/2000/svg">
<g clip-path="url(#clip0_2383_1089)">
<path d="M6.6758 0.843C3.8636 1.1406 1.6406 3.3636 1.343 6.1758C0.794 11.3658 0.5 16.8414 0.5 22.5C0.5 28.1586 0.794 33.6342 1.343 38.8242C1.6406 41.6364 3.8636 43.8594 6.6758 44.157C11.8658 44.706 17.3414 45 23 45C28.6586 45 34.1342 44.706 39.3242 44.157C42.1364 43.8594 44.3594 41.6364 44.657 38.8242C45.206 33.6342 45.5 28.1586 45.5 22.5C45.5 16.8414 45.206 11.3658 44.657 6.1758C44.3594 3.3636 42.1364 1.1406 39.3242 0.843C34.1342 0.294 28.6586 0 23 0C17.3414 0 11.8658 0.294 6.6758 0.843Z" fill="#001242"/>
<path d="M28.1641 13.8234C26.5795 12.9858 24.8047 12.5664 22.8391 12.5664C21.4315 12.5664 20.1001 12.8298 18.8431 13.356C17.5861 13.8822 16.5121 14.5914 15.6205 15.483C14.7289 16.3746 14.0227 17.4324 13.5019 18.657C12.9805 19.8816 12.7207 21.1704 12.7207 22.524C12.7207 24.4254 13.1881 26.1438 14.1223 27.6798C15.0571 29.2158 16.3027 30.4026 17.8603 31.2408C19.4179 32.0784 21.1255 32.484 22.9843 32.4978C26.0839 32.52 28.6237 31.3218 29.4523 30.546C29.6479 30.363 30.0511 30.0228 29.7325 29.622C29.5963 29.451 29.3431 29.3952 29.0893 29.589C27.8557 30.5292 25.9837 31.386 23.0161 31.386C21.8239 31.386 20.6821 31.1844 19.5919 30.7818C18.5017 30.3792 17.5297 29.8128 16.6753 29.082C15.8215 28.3518 15.1417 27.42 14.6371 26.2866C14.1319 25.1532 13.8799 23.8992 13.8799 22.5246C13.8799 20.9244 14.2693 19.4526 15.0481 18.1098C15.8269 16.767 16.9033 15.7008 18.2785 14.9112C19.6531 14.1216 21.1735 13.7268 22.8385 13.7268C24.5893 13.7268 26.1685 14.0922 27.5755 14.8224C28.9825 15.5532 30.0913 16.6026 30.9025 17.9724C31.7137 19.3422 32.1187 20.913 32.1187 22.6854V30.6972C32.1187 30.9978 32.3623 31.242 32.6635 31.242H32.7343C33.0349 31.242 33.2791 30.9984 33.2791 30.6972V22.6854C33.2791 20.709 32.8225 18.9474 31.9093 17.4006C30.9961 15.8538 29.7475 14.6616 28.1629 13.8234H28.1641Z" fill="#F98039"/>
<path d="M34.6172 17.5937C33.962 16.0361 33.065 14.7233 31.9262 13.6541C30.7874 12.5855 29.4338 11.7503 27.866 11.1485C26.2976 10.5473 24.6218 10.2461 22.8386 10.2461C21.0554 10.2461 19.436 10.5713 17.8838 11.2211C16.3316 11.8709 15.0104 12.7463 13.9202 13.8473C12.83 14.9483 11.9708 16.2539 11.342 17.7629C10.7138 19.2719 10.3994 20.8595 10.3994 22.5239C10.3994 23.9741 10.625 25.3493 11.0762 26.6489C11.5274 27.9485 12.1502 29.0849 12.9452 30.0569C13.7402 31.0289 14.6612 31.8725 15.7082 32.5865C16.7558 33.3011 17.894 33.8405 19.124 34.2059C20.354 34.5707 21.6188 34.7537 22.9184 34.7537C24.0404 34.7537 25.16 34.6487 26.231 34.3145C26.4602 34.2431 26.6504 33.9779 26.5712 33.6377C26.5064 33.3575 26.2592 33.2321 25.8902 33.3053C24.7142 33.5393 23.9846 33.6581 22.9832 33.6581C21.8336 33.6581 20.7032 33.4919 19.5914 33.1589C18.4796 32.8259 17.4428 32.3369 16.4816 31.6925C15.5204 31.0481 14.6714 30.2825 13.9358 29.3963C13.2002 28.5101 12.62 27.4739 12.1958 26.2865C11.7716 25.0997 11.5592 23.8457 11.5592 22.5245C11.5592 20.5157 12.053 18.6605 13.0418 16.9577C14.03 15.2555 15.3884 13.9043 17.1182 12.9053C18.8474 11.9063 20.7542 11.4071 22.838 11.4071C24.9218 11.4071 26.9732 11.8769 28.7354 12.8171C30.497 13.7573 31.8878 15.0887 32.9084 16.8131C33.929 18.5369 34.439 20.4947 34.439 22.6859V33.5753C34.439 33.8795 34.6856 34.1261 34.9898 34.1261H35.0486C35.3528 34.1261 35.5994 33.8795 35.5994 33.5753V22.6859C35.5994 20.8493 35.2718 19.1519 34.6166 17.5943L34.6172 17.5937Z" fill="#F98039"/>
<path d="M23.0001 16.047C25.0233 16.047 26.7477 16.7076 27.9861 17.9568C29.1555 19.137 29.7999 20.7792 29.7999 22.5804C29.7999 24.5142 29.2563 26.1228 28.2279 27.2322C27.0705 28.4808 25.3119 29.1144 23.0001 29.1144C20.9235 29.1144 19.1817 28.4556 17.9637 27.21C16.8267 26.0472 16.2003 24.4026 16.2003 22.5804C16.2003 20.7582 16.8639 19.161 18.0687 17.9628C19.3113 16.7274 21.0627 16.047 23.0001 16.047ZM23.0001 14.8872C18.2817 14.8872 15.0405 18.3318 15.0405 22.581C15.0405 26.8302 17.9709 30.2748 23.0001 30.2748C28.5963 30.2748 30.9597 26.8302 30.9597 22.581C30.9597 18.3318 27.8799 14.8872 23.0001 14.8872Z" fill="#F98039"/>
</g>
<defs>
<clipPath id="clip0_2383_1089">
<rect width="45" height="45" fill="white" transform="translate(0.5)"/>
</clipPath>
</defs>
</svg>
