<svg width="37" height="37" viewBox="0 0 37 37" fill="none" xmlns="http://www.w3.org/2000/svg">
<g opacity="0.35">
<path d="M1.08838 11.6439V31.5586C1.08838 33.5175 2.28544 34.8233 4.02661 34.8233H32.3207C34.0619 34.8233 36.0207 33.4086 36.0207 31.5586V11.6439H1.08838ZM10.7737 29.9263H8.16191C7.72661 29.9263 7.29132 29.5998 7.29132 29.0557V26.3351C7.29132 25.8998 7.61779 25.4645 8.16191 25.4645H10.8825C11.3178 25.4645 11.7531 25.791 11.7531 26.3351V29.0557C11.6443 29.5998 11.3178 29.9263 10.7737 29.9263ZM10.7737 20.1322H8.16191C7.72661 20.1322 7.29132 19.8057 7.29132 19.2616V16.541C7.29132 16.1057 7.61779 15.6704 8.16191 15.6704H10.8825C11.3178 15.6704 11.7531 15.9969 11.7531 16.541V19.2616C11.6443 19.8057 11.3178 20.1322 10.7737 20.1322ZM19.4796 29.9263H16.759C16.3237 29.9263 15.8884 29.5998 15.8884 29.0557V26.3351C15.8884 25.8998 16.2149 25.4645 16.759 25.4645H19.4796C19.9149 25.4645 20.3501 25.791 20.3501 26.3351V29.0557C20.3501 29.5998 20.0237 29.9263 19.4796 29.9263ZM19.4796 20.1322H16.759C16.3237 20.1322 15.8884 19.8057 15.8884 19.2616V16.541C15.8884 16.1057 16.2149 15.6704 16.759 15.6704H19.4796C19.9149 15.6704 20.3501 15.9969 20.3501 16.541V19.2616C20.3501 19.8057 20.0237 20.1322 19.4796 20.1322ZM28.1854 29.9263H25.4649C25.0296 29.9263 24.5943 29.5998 24.5943 29.0557V26.3351C24.5943 25.8998 24.9207 25.4645 25.4649 25.4645H28.1854C28.6207 25.4645 29.056 25.791 29.056 26.3351V29.0557C29.056 29.5998 28.7296 29.9263 28.1854 29.9263ZM28.1854 20.1322H25.4649C25.0296 20.1322 24.5943 19.8057 24.5943 19.2616V16.541C24.5943 16.1057 24.9207 15.6704 25.4649 15.6704H28.1854C28.6207 15.6704 29.056 15.9969 29.056 16.541V19.2616C29.056 19.8057 28.7296 20.1322 28.1854 20.1322Z" fill="#F97F39"/>
<path d="M1.08838 11.6439V31.5586C1.08838 33.5175 2.28544 34.8233 4.02661 34.8233H32.3207C34.0619 34.8233 36.0207 33.4086 36.0207 31.5586V11.6439H1.08838ZM10.7737 29.9263H8.16191C7.72661 29.9263 7.29132 29.5998 7.29132 29.0557V26.3351C7.29132 25.8998 7.61779 25.4645 8.16191 25.4645H10.8825C11.3178 25.4645 11.7531 25.791 11.7531 26.3351V29.0557C11.6443 29.5998 11.3178 29.9263 10.7737 29.9263ZM10.7737 20.1322H8.16191C7.72661 20.1322 7.29132 19.8057 7.29132 19.2616V16.541C7.29132 16.1057 7.61779 15.6704 8.16191 15.6704H10.8825C11.3178 15.6704 11.7531 15.9969 11.7531 16.541V19.2616C11.6443 19.8057 11.3178 20.1322 10.7737 20.1322ZM19.4796 29.9263H16.759C16.3237 29.9263 15.8884 29.5998 15.8884 29.0557V26.3351C15.8884 25.8998 16.2149 25.4645 16.759 25.4645H19.4796C19.9149 25.4645 20.3501 25.791 20.3501 26.3351V29.0557C20.3501 29.5998 20.0237 29.9263 19.4796 29.9263ZM19.4796 20.1322H16.759C16.3237 20.1322 15.8884 19.8057 15.8884 19.2616V16.541C15.8884 16.1057 16.2149 15.6704 16.759 15.6704H19.4796C19.9149 15.6704 20.3501 15.9969 20.3501 16.541V19.2616C20.3501 19.8057 20.0237 20.1322 19.4796 20.1322ZM28.1854 29.9263H25.4649C25.0296 29.9263 24.5943 29.5998 24.5943 29.0557V26.3351C24.5943 25.8998 24.9207 25.4645 25.4649 25.4645H28.1854C28.6207 25.4645 29.056 25.791 29.056 26.3351V29.0557C29.056 29.5998 28.7296 29.9263 28.1854 29.9263ZM28.1854 20.1322H25.4649C25.0296 20.1322 24.5943 19.8057 24.5943 19.2616V16.541C24.5943 16.1057 24.9207 15.6704 25.4649 15.6704H28.1854C28.6207 15.6704 29.056 15.9969 29.056 16.541V19.2616C29.056 19.8057 28.7296 20.1322 28.1854 20.1322Z" fill="#F97F39"/>
</g>
<path d="M32.2119 2.17627H28.9472V5.44098C28.9472 6.09392 28.4031 6.52921 27.859 6.52921C27.3149 6.52921 26.7707 6.09392 26.7707 5.44098V2.17627H9.35897V5.44098C9.35897 6.09392 8.81485 6.52921 8.27073 6.52921C7.72661 6.52921 7.1825 6.09392 7.1825 5.44098V2.17627H3.91779C2.28544 2.17627 1.08838 3.59098 1.08838 5.44098V9.35862H35.9119V5.44098C35.9119 3.59098 33.9531 2.17627 32.2119 2.17627Z" fill="#F97F39"/>
</svg>
