<svg width="37" height="37" viewBox="0 0 37 37" fill="none" xmlns="http://www.w3.org/2000/svg">
<path d="M33.6916 17.0262C33.419 17.0258 33.1553 16.9293 32.9469 16.7536C32.7385 16.5779 32.5988 16.3343 32.5523 16.0657C32.392 15.129 32.1369 14.2111 31.7907 13.3262C31.7355 13.1844 31.7088 13.0332 31.7121 12.8812C31.7154 12.7292 31.7485 12.5793 31.8097 12.44C31.8709 12.3008 31.959 12.175 32.0688 12.0698C32.1786 11.9646 32.3081 11.8821 32.4498 11.8269C32.736 11.7155 33.0547 11.7223 33.3359 11.8459C33.4751 11.9071 33.6009 11.9951 33.7061 12.105C33.8113 12.2148 33.8939 12.3442 33.949 12.486C34.3492 13.5166 34.6456 14.5846 34.834 15.6741C34.8596 15.8238 34.8555 15.9771 34.8219 16.1253C34.7883 16.2734 34.7258 16.4135 34.6381 16.5375C34.5503 16.6615 34.439 16.7669 34.3104 16.8479C34.1819 16.9288 34.0387 16.9836 33.8889 17.0092C33.8237 17.0202 33.7577 17.0259 33.6916 17.0262ZM31.4731 11.322C31.2793 11.3224 31.0885 11.274 30.9182 11.1813C30.7479 11.0886 30.6037 10.9546 30.4988 10.7917C29.9839 9.99155 29.3905 9.24478 28.7274 8.56241C28.62 8.45384 28.5351 8.32504 28.4777 8.18348C28.4203 8.04191 28.3915 7.89038 28.3931 7.73763C28.3946 7.58488 28.4263 7.43395 28.4865 7.29355C28.5467 7.15315 28.6341 7.02606 28.7437 6.91964C28.8533 6.81321 28.9829 6.72956 29.125 6.6735C29.2671 6.61745 29.4189 6.59011 29.5716 6.59306C29.7243 6.59601 29.8749 6.62919 30.0148 6.69069C30.1546 6.75219 30.2809 6.84079 30.3862 6.95137C31.1564 7.74387 31.8458 8.61096 32.4444 9.53983C32.5568 9.71441 32.6201 9.91603 32.6277 10.1235C32.6353 10.331 32.5868 10.5367 32.4875 10.719C32.3881 10.9014 32.2415 11.0536 32.063 11.1597C31.8845 11.2658 31.6808 11.3218 31.4731 11.322ZM27.1996 6.9267C26.9672 6.92731 26.7402 6.85684 26.549 6.72475C25.7627 6.18931 24.9256 5.73232 24.05 5.36037C23.9003 5.3084 23.7628 5.22621 23.6462 5.1189C23.5296 5.01159 23.4363 4.88144 23.372 4.73655C23.3078 4.59165 23.2741 4.43511 23.2729 4.27662C23.2717 4.11814 23.3031 3.96111 23.3652 3.81528C23.4273 3.66945 23.5186 3.53793 23.6337 3.4289C23.7487 3.31986 23.8849 3.23564 24.0338 3.18146C24.1828 3.12728 24.3413 3.10429 24.4994 3.11393C24.6576 3.12357 24.8122 3.16563 24.9534 3.23749C25.97 3.66773 26.9409 4.19865 27.8518 4.82233C28.0555 4.96174 28.2093 5.16273 28.2906 5.39587C28.3719 5.62901 28.3765 5.88206 28.3036 6.11796C28.2307 6.35387 28.0842 6.56024 27.8856 6.70688C27.6869 6.85352 27.4465 6.93271 27.1996 6.93287V6.9267ZM21.5618 4.54329C21.4852 4.54284 21.4089 4.53562 21.3336 4.5217C20.4006 4.33463 19.4515 4.24013 18.5 4.23958C18.1933 4.23958 17.8992 4.11776 17.6824 3.90092C17.4656 3.68408 17.3438 3.38998 17.3438 3.08333C17.3438 2.77667 17.4656 2.48258 17.6824 2.26574C17.8992 2.0489 18.1933 1.92708 18.5 1.92708C19.6042 1.92691 20.7058 2.03639 21.7884 2.25391C22.069 2.31089 22.3185 2.46996 22.4886 2.70034C22.6586 2.93071 22.7371 3.21599 22.7089 3.50094C22.6807 3.78589 22.5478 4.05024 22.3359 4.2428C22.1239 4.43536 21.8481 4.54243 21.5618 4.54329Z" fill="#F97F39"/>
<path d="M18.5002 35.0731C14.1048 35.0731 9.88937 33.327 6.78134 30.219C3.67332 27.111 1.92725 22.8956 1.92725 18.5002C1.92725 14.1048 3.67332 9.88937 6.78134 6.78134C9.88937 3.67332 14.1048 1.92725 18.5002 1.92725C18.8068 1.92725 19.1009 2.04906 19.3178 2.2659C19.5346 2.48274 19.6564 2.77684 19.6564 3.0835C19.6564 3.39015 19.5346 3.68425 19.3178 3.90109C19.1009 4.11793 18.8068 4.23975 18.5002 4.23975C15.7404 4.23869 13.0395 5.03848 10.7253 6.54209C8.41105 8.0457 6.58284 10.1885 5.4624 12.7107C4.34196 15.2328 3.97745 18.0259 4.41307 20.7511C4.84869 23.4763 6.06573 26.0166 7.91656 28.0637C9.7674 30.1109 12.1725 31.5771 14.8401 32.2843C17.5078 32.9916 20.3233 32.9096 22.9453 32.0483C25.5673 31.187 27.883 29.5833 29.6115 27.4319C31.3401 25.2805 32.4072 22.6737 32.6835 19.9277C32.7222 19.6296 32.8754 19.3582 33.1108 19.1712C33.3461 18.9841 33.6451 18.8961 33.9443 18.9258C34.2435 18.9555 34.5193 19.1005 34.7133 19.3302C34.9074 19.5598 35.0043 19.856 34.9837 20.1559C34.5877 24.2487 32.6785 28.0464 29.6297 30.8055C26.5809 33.5646 22.6121 35.0864 18.5002 35.0731Z" fill="#F97F39"/>
<path opacity="0.35" d="M18.4998 6.1665C16.0605 6.1665 13.676 6.88984 11.6478 8.24505C9.6196 9.60025 8.03881 11.5265 7.10533 13.7801C6.17185 16.0337 5.92761 18.5135 6.40349 20.906C6.87938 23.2984 8.05401 25.496 9.77886 27.2208C11.5037 28.9457 13.7013 30.1203 16.0937 30.5962C18.4862 31.0721 20.966 30.8278 23.2196 29.8944C25.4732 28.9609 27.3994 27.3801 28.7546 25.3519C30.1098 23.3237 30.8332 20.9391 30.8332 18.4998C30.8332 15.2288 29.5338 12.0918 27.2208 9.77885C24.9079 7.46591 21.7708 6.1665 18.4998 6.1665ZM25.5915 23.8186C25.4075 24.0639 25.1336 24.2261 24.83 24.2695C24.5265 24.3128 24.2181 24.2338 23.9728 24.0498L17.8061 19.4248C17.6615 19.3181 17.5442 19.1786 17.4638 19.0178C17.3835 18.8571 17.3423 18.6796 17.3436 18.4998V10.7915C17.3436 10.4848 17.4654 10.1908 17.6823 9.97391C17.8991 9.75707 18.1932 9.63525 18.4998 9.63525C18.8065 9.63525 19.1006 9.75707 19.3174 9.97391C19.5343 10.1908 19.6561 10.4848 19.6561 10.7915V17.914L25.3603 22.1998C25.4817 22.2909 25.5841 22.4051 25.6614 22.5357C25.7388 22.6664 25.7897 22.811 25.8111 22.9613C25.8326 23.1116 25.8243 23.2647 25.7866 23.4118C25.7489 23.5589 25.6826 23.6971 25.5915 23.8186Z" fill="#F97F39"/>
</svg>
