<svg width="38" height="38" viewBox="0 0 38 38" fill="none" xmlns="http://www.w3.org/2000/svg">
<path opacity="0.35" d="M28.2355 33.1082H9.6641C7.09969 33.1082 5.02124 31.0298 5.02124 28.4654V9.89393C5.02124 7.32952 7.09969 5.25107 9.6641 5.25107H28.2355C30.7999 5.25107 32.8784 7.32952 32.8784 9.89393V28.4654C32.8784 31.0298 30.7999 33.1082 28.2355 33.1082Z" fill="#F98039"/>
<path d="M32.8784 23.8225V28.4654C32.8784 31.0298 30.7999 33.1082 28.2355 33.1082H9.6641C7.09969 33.1082 5.02124 31.0298 5.02124 28.4654V23.8225H11.741C12.9806 23.8225 14.1893 24.4895 14.6706 25.6317C15.3748 27.2985 17.023 28.4654 18.9498 28.4654C20.8766 28.4654 22.5248 27.2985 23.229 25.6317C23.7103 24.4895 24.9174 23.8225 26.1586 23.8225H32.8784Z" fill="#F98039"/>
</svg>
