<svg width="40" height="43" viewBox="0 0 40 43" fill="none" xmlns="http://www.w3.org/2000/svg">
<g filter="url(#filter0_d_22_921)">
<path opacity="0.35" d="M17.9167 3.09526C10.6522 3.09526 4.76196 8.9855 4.76196 16.25C4.76196 18.344 5.26339 20.3156 6.1347 22.0737L4.81303 27.3604C4.51125 28.5644 5.60232 29.6555 6.80637 29.3537L12.093 28.032C13.8511 28.9034 15.8228 29.4048 17.9167 29.4048C25.1812 29.4048 31.0715 23.5145 31.0715 16.25C31.0715 8.9855 25.1812 3.09526 17.9167 3.09526Z" fill="#F98039"/>
<path d="M33.698 24.1382L35.665 32.0032C35.9668 33.2072 34.8757 34.2983 33.6716 33.9965L25.8066 32.0295L33.698 24.1382Z" fill="#F98039"/>
<path d="M29.2362 9.57358C30.3954 11.5313 31.0717 13.8094 31.0717 16.25C31.0717 23.5145 25.1814 29.4048 17.9169 29.4048C15.4763 29.4048 13.1982 28.7285 11.2405 27.5693C13.5294 31.443 17.7358 34.0476 22.5598 34.0476C29.8243 34.0476 35.7145 28.1574 35.7145 20.8929C35.7145 16.0689 33.1099 11.8625 29.2362 9.57358Z" fill="#F98039"/>
</g>
<defs>
<filter id="filter0_d_22_921" x="-2.33325" y="0" width="45.1428" height="45.1429" filterUnits="userSpaceOnUse" color-interpolation-filters="sRGB">
<feFlood flood-opacity="0" result="BackgroundImageFix"/>
<feColorMatrix in="SourceAlpha" type="matrix" values="0 0 0 0 0 0 0 0 0 0 0 0 0 0 0 0 0 0 127 0" result="hardAlpha"/>
<feOffset dy="4"/>
<feGaussianBlur stdDeviation="2"/>
<feComposite in2="hardAlpha" operator="out"/>
<feColorMatrix type="matrix" values="0 0 0 0 0 0 0 0 0 0 0 0 0 0 0 0 0 0 0.25 0"/>
<feBlend mode="normal" in2="BackgroundImageFix" result="effect1_dropShadow_22_921"/>
<feBlend mode="normal" in="SourceGraphic" in2="effect1_dropShadow_22_921" result="shape"/>
</filter>
</defs>
</svg>
